<?xml version="1.0" encoding="utf-8"?>
<!-- Generator: Adobe Illustrator 21.1.0, SVG Export Plug-In . SVG Version: 6.00 Build 0)  -->
<svg version="1.1" id="Layer_1" xmlns="http://www.w3.org/2000/svg" xmlns:xlink="http://www.w3.org/1999/xlink" x="0px" y="0px"
	 viewBox="0 0 30 60.2" style="enable-background:new 0 0 30 60.2;" xml:space="preserve">
<style type="text/css">
	.st0{fill:#1C1649;}
	.st1{fill:#46666F;}
	.st2{fill:#FFF200;}
</style>
<rect class="st0" width="30" height="60.2"/>
<g>
	<g>
		<g>
			<path class="st1" d="M8.4,48.1c0,0.3-0.1,0.6-0.3,0.8c-0.2,0.2-0.5,0.3-0.8,0.3s-0.6-0.1-0.8-0.3c-0.2-0.2-0.3-0.5-0.3-0.8
				c0-0.3,0.1-0.6,0.3-0.8S7,47,7.3,47c0.3,0,0.6,0.1,0.8,0.3C8.3,47.5,8.4,47.8,8.4,48.1z M8.4,51.1c0,0.3-0.1,0.6-0.3,0.8
				c-0.2,0.2-0.5,0.3-0.8,0.3s-0.6-0.1-0.8-0.3c-0.2-0.2-0.3-0.5-0.3-0.8c0-0.3,0.1-0.6,0.3-0.8S7,50,7.3,50c0.3,0,0.6,0.1,0.8,0.3
				C8.3,50.5,8.4,50.8,8.4,51.1z M19.7,43.5v-0.3c0.1-0.1,0.2-0.1,0.3-0.2c0.1-0.1,0.3-0.2,0.5-0.4c0.2-0.2,0.4-0.2,0.6-0.2
				c0.2,0,0.2,0.1,0.2,0.4v1.7c0,1.2-0.5,2.2-1.6,2.8c0.2,1,0.2,1.8,0.2,2.5c0,1.6-0.4,2.9-1.2,4s-2,1.6-3.5,1.6
				c-0.9,0-1.6-0.2-2.3-0.5c-0.7-0.3-1.2-0.8-1.5-1.4c-0.4-0.6-0.6-1.3-0.8-2s-0.3-1.5-0.3-2.4c0-1.2,0.1-2.2,0.2-3h5.9
				c2.2,0,3.3-0.7,3.3-2.2V43.5z M18.3,48.1h-6.4c-0.1,0.4-0.1,0.9-0.1,1.5c0,1.1,0.3,2.1,0.9,2.8s1.4,1.1,2.5,1.1
				c1.1,0,1.9-0.4,2.4-1.1s0.8-1.7,0.8-2.7C18.4,49.3,18.3,48.8,18.3,48.1z"/>
			<path class="st1" d="M19.7,36.8v-0.3c0.1-0.1,0.2-0.1,0.3-0.2c0.1-0.1,0.3-0.2,0.5-0.4c0.2-0.2,0.4-0.2,0.6-0.2
				c0.2,0,0.2,0.2,0.2,0.4c0,1.6-0.7,2.8-2.2,3.6c0.6,0.2,1.2,0.6,1.6,1.2c0.4,0.5,0.6,1.2,0.6,1.9l-1.6,0.7c0-0.7-0.3-1.3-0.8-1.7
				c-0.5-0.4-1.2-0.6-2.1-0.6H11l-0.7-2h6.7c0.7,0,1.3-0.2,1.9-0.7C19.4,38.2,19.7,37.6,19.7,36.8z M25.9,40.5L25.9,40.5
				c0,0.3-0.1,0.6-0.3,0.8c-0.2,0.2-0.5,0.3-0.8,0.3c-0.3,0-0.6-0.1-0.8-0.3c-0.2-0.2-0.3-0.5-0.3-0.8c0-0.3,0.1-0.6,0.3-0.8
				s0.5-0.3,0.8-0.3c0.3,0,0.6,0.1,0.8,0.3C25.8,39.9,25.9,40.1,25.9,40.5z M25.9,43.5L25.9,43.5c0,0.3-0.1,0.6-0.3,0.8
				c-0.2,0.2-0.5,0.3-0.8,0.3c-0.3,0-0.6-0.1-0.8-0.3c-0.2-0.2-0.3-0.5-0.3-0.8s0.1-0.6,0.3-0.8c0.2-0.2,0.5-0.3,0.8-0.3
				c0.3,0,0.6,0.1,0.8,0.3C25.8,42.9,25.9,43.1,25.9,43.5z"/>
			<path class="st1" d="M21.3,36.2l-1.6,0.7c0-0.8-0.3-1.3-0.9-1.7c-0.6-0.4-1.4-0.6-2.5-0.6H11l-0.7-2h6.3c0.9,0,1.7,0.1,2.3,0.3
				c0.6,0.2,1.1,0.5,1.5,0.9c0.3,0.4,0.6,0.8,0.7,1.1S21.3,35.8,21.3,36.2z M25.9,33.7L25.9,33.7c0,0.3-0.1,0.6-0.3,0.8
				c-0.2,0.2-0.5,0.3-0.8,0.3c-0.3,0-0.6-0.1-0.8-0.3c-0.2-0.2-0.3-0.5-0.3-0.8c0-0.3,0.1-0.6,0.3-0.8s0.5-0.3,0.8-0.3
				c0.3,0,0.6,0.1,0.8,0.3C25.8,33.1,25.9,33.4,25.9,33.7z"/>
			<path class="st1" d="M19.7,24.8v-0.3c0.1-0.1,0.2-0.1,0.3-0.2c0.1-0.1,0.3-0.2,0.5-0.4s0.4-0.2,0.6-0.2c0.2,0,0.2,0.1,0.2,0.4
				c0,1.3-0.5,2.4-1.5,3.2h0.8c1.8,0,3.1,0.4,4,1.1s1.4,1.9,1.4,3.5l-1.6,0.2c0-0.5-0.1-1-0.2-1.3c-0.1-0.3-0.3-0.6-0.6-0.9
				c-0.3-0.3-0.8-0.5-1.4-0.6c-0.6-0.1-1.4-0.2-2.4-0.1h-6.6l-0.7-1.9h4.8c0.6,0,1.2-0.2,1.7-0.7C19.4,26.1,19.7,25.5,19.7,24.8z"/>
			<path class="st1" d="M19.7,11.6v-0.3c0.1-0.1,0.2-0.1,0.3-0.2c0.1-0.1,0.3-0.2,0.5-0.4s0.4-0.2,0.6-0.2c0.2,0,0.2,0.1,0.2,0.4
				v13.2l-1.6,0.7v-3.6c-1,0.9-2.3,1.4-3.9,1.4c-1.7,0-3.1-0.5-4.1-1.6c-1.1-1.1-1.6-2.5-1.6-4.2c0-1.1,0.2-2,0.6-2.7l1.5,0.4
				c-0.3,0.7-0.5,1.4-0.5,2.3c0,1.2,0.4,2.1,1.2,2.8c0.8,0.7,1.7,1,2.9,1c1.2,0,2.2-0.3,2.9-1c0.7-0.7,1.1-1.5,1.1-2.6V11.6z"/>
			<path class="st1" d="M21.3,10.9l-1.6,0.7c0-0.8-0.3-1.3-0.9-1.7c-0.6-0.4-1.4-0.6-2.5-0.6H6.2l-0.7-2h11.1c0.9,0,1.7,0.1,2.3,0.3
				c0.6,0.2,1.1,0.5,1.5,0.9c0.3,0.4,0.6,0.8,0.7,1.1C21.2,10.1,21.3,10.4,21.3,10.9z"/>
			<path class="st1" d="M21.3,5.3H6.2l-0.7-2h15.8V5.3z"/>
		</g>
	</g>
	<g>
		<path class="st2" d="M8,48.4c0,0.3-0.1,0.6-0.3,0.8c-0.2,0.2-0.5,0.3-0.8,0.3s-0.6-0.1-0.8-0.3c-0.2-0.2-0.3-0.5-0.3-0.8
			c0-0.3,0.1-0.6,0.3-0.8s0.5-0.3,0.8-0.3c0.3,0,0.6,0.1,0.8,0.3C7.9,47.8,8,48.1,8,48.4z M8,51.4c0,0.3-0.1,0.6-0.3,0.8
			c-0.2,0.2-0.5,0.3-0.8,0.3s-0.6-0.1-0.8-0.3c-0.2-0.2-0.3-0.5-0.3-0.8c0-0.3,0.1-0.6,0.3-0.8s0.5-0.3,0.8-0.3
			c0.3,0,0.6,0.1,0.8,0.3C7.9,50.8,8,51.1,8,51.4z M19.3,43.8v-0.3c0.1-0.1,0.2-0.1,0.3-0.2c0.1-0.1,0.3-0.2,0.5-0.4
			c0.2-0.2,0.4-0.2,0.6-0.2c0.2,0,0.2,0.1,0.2,0.4v1.7c0,1.2-0.5,2.2-1.6,2.8c0.2,1,0.2,1.8,0.2,2.5c0,1.6-0.4,2.9-1.2,4
			s-2,1.6-3.5,1.6c-0.9,0-1.6-0.2-2.3-0.5c-0.7-0.3-1.2-0.8-1.5-1.4c-0.4-0.6-0.6-1.3-0.8-2s-0.3-1.5-0.3-2.4c0-1.2,0.1-2.2,0.2-3
			H16c2.2,0,3.3-0.7,3.3-2.2V43.8z M17.9,48.4h-6.4c-0.1,0.4-0.1,0.9-0.1,1.5c0,1.1,0.3,2.1,0.9,2.8s1.4,1.1,2.5,1.1
			c1.1,0,1.9-0.4,2.4-1.1S18,51,18,50C18,49.6,17.9,49,17.9,48.4z"/>
		<path class="st2" d="M19.3,37.1v-0.3c0.1-0.1,0.2-0.1,0.3-0.2c0.1-0.1,0.3-0.2,0.5-0.4c0.2-0.2,0.4-0.2,0.6-0.2
			c0.2,0,0.2,0.2,0.2,0.4c0,1.6-0.7,2.8-2.2,3.6c0.6,0.2,1.2,0.6,1.6,1.2c0.4,0.5,0.6,1.2,0.6,1.9l-1.6,0.7c0-0.7-0.3-1.3-0.8-1.7
			c-0.5-0.4-1.2-0.6-2.1-0.6h-5.8l-0.7-2h6.7c0.7,0,1.3-0.2,1.9-0.7C19,38.4,19.3,37.8,19.3,37.1z M25.5,40.7L25.5,40.7
			c0,0.3-0.1,0.6-0.3,0.8c-0.2,0.2-0.5,0.3-0.8,0.3c-0.3,0-0.6-0.1-0.8-0.3c-0.2-0.2-0.3-0.5-0.3-0.8c0-0.3,0.1-0.6,0.3-0.8
			s0.5-0.3,0.8-0.3c0.3,0,0.6,0.1,0.8,0.3C25.4,40.1,25.5,40.4,25.5,40.7z M25.5,43.7L25.5,43.7c0,0.3-0.1,0.6-0.3,0.8
			c-0.2,0.2-0.5,0.3-0.8,0.3c-0.3,0-0.6-0.1-0.8-0.3c-0.2-0.2-0.3-0.5-0.3-0.8s0.1-0.6,0.3-0.8c0.2-0.2,0.5-0.3,0.8-0.3
			c0.3,0,0.6,0.1,0.8,0.3C25.4,43.2,25.5,43.4,25.5,43.7z"/>
		<path class="st2" d="M20.9,36.4l-1.6,0.7c0-0.8-0.3-1.3-0.9-1.7C17.8,35,17,34.8,16,34.8h-5.4l-0.7-2h6.3c0.9,0,1.7,0.1,2.3,0.3
			c0.6,0.2,1.1,0.5,1.5,0.9c0.3,0.4,0.6,0.8,0.7,1.1S20.9,36,20.9,36.4z M25.5,34L25.5,34c0,0.3-0.1,0.6-0.3,0.8
			c-0.2,0.2-0.5,0.3-0.8,0.3c-0.3,0-0.6-0.1-0.8-0.3c-0.2-0.2-0.3-0.5-0.3-0.8c0-0.3,0.1-0.6,0.3-0.8s0.5-0.3,0.8-0.3
			c0.3,0,0.6,0.1,0.8,0.3C25.4,33.4,25.5,33.6,25.5,34z"/>
		<path class="st2" d="M19.3,25.1v-0.3c0.1-0.1,0.2-0.1,0.3-0.2c0.1-0.1,0.3-0.2,0.5-0.4s0.4-0.2,0.6-0.2c0.2,0,0.2,0.1,0.2,0.4
			c0,1.3-0.5,2.4-1.5,3.2h0.8c1.8,0,3.1,0.4,4,1.1s1.4,1.9,1.4,3.5L24,32.4c0-0.5-0.1-1-0.2-1.3c-0.1-0.3-0.3-0.6-0.6-0.9
			c-0.3-0.3-0.8-0.5-1.4-0.6c-0.6-0.1-1.4-0.2-2.4-0.1h-6.6l-0.7-1.9h4.8c0.6,0,1.2-0.2,1.7-0.7C19,26.3,19.3,25.8,19.3,25.1z"/>
		<path class="st2" d="M19.3,11.8v-0.3c0.1-0.1,0.2-0.1,0.3-0.2c0.1-0.1,0.3-0.2,0.5-0.4s0.4-0.2,0.6-0.2c0.2,0,0.2,0.1,0.2,0.4
			v13.2l-1.6,0.7v-3.6c-1,0.9-2.3,1.4-3.9,1.4c-1.7,0-3.1-0.5-4.1-1.6c-1.1-1.1-1.6-2.5-1.6-4.2c0-1.1,0.2-2,0.6-2.7l1.5,0.4
			c-0.3,0.7-0.5,1.4-0.5,2.3c0,1.2,0.4,2.1,1.2,2.8c0.8,0.7,1.7,1,2.9,1c1.2,0,2.2-0.3,2.9-1c0.7-0.7,1.1-1.5,1.1-2.6V11.8z"/>
		<path class="st2" d="M20.9,11.1l-1.6,0.7c0-0.8-0.3-1.3-0.9-1.7C17.8,9.7,17,9.5,16,9.5H5.8l-0.7-2h11.1c0.9,0,1.7,0.1,2.3,0.3
			c0.6,0.2,1.1,0.5,1.5,0.9c0.3,0.4,0.6,0.8,0.7,1.1C20.8,10.3,20.9,10.7,20.9,11.1z"/>
		<path class="st2" d="M20.9,5.6H5.8l-0.7-2h15.8V5.6z"/>
	</g>
</g>
</svg>
