<?xml version="1.0" encoding="utf-8"?>
<!-- Generator: Adobe Illustrator 21.1.0, SVG Export Plug-In . SVG Version: 6.00 Build 0)  -->
<svg version="1.1" id="Layer_1" xmlns="http://www.w3.org/2000/svg" xmlns:xlink="http://www.w3.org/1999/xlink" x="0px" y="0px"
	 viewBox="0 0 30 60.2" style="enable-background:new 0 0 30 60.2;" xml:space="preserve">
<style type="text/css">
	.st0{fill:#1C1649;}
	.st1{fill:#46666F;}
	.st2{fill:#FFF200;}
</style>
<rect class="st0" width="30" height="60.2"/>
<g>
	<g>
		<path class="st1" d="M11.6,46.3c0,0.4-0.1,0.7-0.4,0.9c-0.3,0.2-0.6,0.4-0.9,0.4s-0.7-0.1-0.9-0.4S9,46.7,9,46.3
			c0-0.3,0.1-0.6,0.4-0.9C9.7,45.2,10,45,10.3,45s0.7,0.1,0.9,0.4C11.5,45.7,11.6,46,11.6,46.3z M11.6,49.1c0,0.4-0.1,0.7-0.4,0.9
			c-0.3,0.2-0.6,0.4-0.9,0.4S9.7,50.3,9.4,50C9.2,49.8,9,49.5,9,49.1s0.1-0.7,0.4-0.9c0.2-0.3,0.5-0.4,0.9-0.4
			c0.4,0,0.7,0.1,0.9,0.4C11.5,48.4,11.6,48.8,11.6,49.1z M14.9,45.6v2.9c0,0.3,0.1,0.5,0.2,0.8s0.2,0.4,0.4,0.5s0.3,0.2,0.5,0.3
			c0.2,0.1,0.4,0.1,0.6,0.1c0.5,0,0.9-0.2,1.2-0.5c0.3-0.3,0.4-0.7,0.4-1.2v-1.7h2.2v1.8c0,0.5-0.1,1-0.3,1.4
			c-0.2,0.4-0.4,0.8-0.8,1.2c-0.3,0.3-0.7,0.6-1.2,0.8s-1,0.3-1.5,0.3c-0.5,0-1-0.1-1.5-0.3s-0.9-0.4-1.2-0.8S13.2,50.5,13,50
			c-0.2-0.5-0.3-1-0.3-1.5v-5.1h5.4V42h2.2v3.6H14.9z"/>
		<path class="st1" d="M20.3,42c0,0.3-0.1,0.5-0.3,0.6c-0.2,0.1-0.5,0.2-0.7,0.2c-0.3,0-0.5-0.1-0.7-0.2c-0.2-0.1-0.3-0.3-0.4-0.6
			c0-0.4-0.2-0.7-0.5-1s-0.7-0.5-1.1-0.5h-3.9v-2.2h3.9c0.6,0,1.2,0.1,1.6,0.4v-2h2.2v2.7h-1.1c0.4,0.4,0.7,0.8,0.9,1.2
			C20.2,41.1,20.3,41.5,20.3,42z M21.3,38.5c0-0.4,0.1-0.7,0.4-0.9s0.6-0.4,0.9-0.4c0.4,0,0.7,0.1,0.9,0.4s0.4,0.6,0.4,0.9
			c0,0.4-0.1,0.7-0.4,0.9c-0.3,0.3-0.6,0.4-0.9,0.4c-0.3,0-0.6-0.1-0.9-0.3S21.3,38.9,21.3,38.5z M21.3,41.3c0-0.4,0.1-0.7,0.4-0.9
			c0.3-0.2,0.6-0.3,0.9-0.3c0.4,0,0.7,0.1,1,0.4c0.2,0.3,0.4,0.6,0.4,0.9c0,0.4-0.1,0.7-0.4,0.9c-0.3,0.3-0.6,0.4-0.9,0.4
			c-0.3,0-0.6-0.1-0.9-0.3C21.5,42,21.3,41.7,21.3,41.3z"/>
		<path class="st1" d="M18.1,36.7c0-0.4-0.2-0.7-0.5-1s-0.7-0.5-1.1-0.5h-3.9V33h3.9c0.6,0,1.1,0.1,1.6,0.3s0.9,0.5,1.2,0.8
			c0.3,0.3,0.6,0.7,0.8,1.2c0.2,0.4,0.3,0.9,0.3,1.3c0,0.3-0.1,0.5-0.3,0.6c-0.2,0.1-0.5,0.2-0.7,0.2c-0.3,0-0.5-0.1-0.7-0.2
			C18.3,37.1,18.2,36.9,18.1,36.7z M23.9,34.5c0,0.3-0.1,0.6-0.4,0.9c-0.2,0.3-0.6,0.4-0.9,0.4c-0.4,0-0.7-0.1-0.9-0.4
			c-0.2-0.3-0.4-0.6-0.4-0.9c0-0.4,0.1-0.7,0.4-0.9c0.3-0.3,0.6-0.4,0.9-0.4c0.4,0,0.7,0.1,0.9,0.4C23.8,33.9,23.9,34.2,23.9,34.5z"
			/>
		<path class="st1" d="M19.6,29.7c-0.4-0.2-0.8-0.4-1.1-0.5c-0.3-0.1-0.6-0.1-1-0.1c-1.3,0-2.3,0.6-3,1.8l-1.9-1.1
			c0.6-0.9,1.3-1.6,2.1-2.1c0.8-0.5,1.7-0.7,2.6-0.7c0.1,0,0.3,0,0.4,0s0.3,0,0.4,0v-1.2h2.2v1.9c0.1,0,0.2,0.1,0.2,0.1
			c0.1,0,0.2,0.1,0.2,0.1l3.9,2.3l-1.1,1.9L19.6,29.7z"/>
		<path class="st1" d="M20.3,25.8c0,0.3-0.1,0.5-0.3,0.6c-0.2,0.1-0.5,0.2-0.7,0.2c-0.3,0-0.5-0.1-0.7-0.2c-0.2-0.1-0.3-0.3-0.3-0.6
			v-1.7c-0.2,0.1-0.5,0.2-0.8,0.3s-0.6,0.1-0.9,0.1c-0.6,0-1.1-0.1-1.6-0.3s-0.8-0.5-1.2-0.8c-0.3-0.3-0.5-0.7-0.7-1.2
			s-0.2-0.9-0.2-1.4c0-0.6,0.1-1.1,0.4-1.7c0.2-0.5,0.6-1,1.2-1.5l1.5,1.6c-0.6,0.4-0.9,0.9-0.9,1.6c0,0.4,0.1,0.7,0.4,1
			c0.3,0.3,0.7,0.4,1.1,0.4c0.4,0,0.8-0.1,1.2-0.4s0.5-0.7,0.5-1.2V16h2.2V25.8z"/>
		<path class="st1" d="M20.3,16c0,0.3-0.1,0.5-0.3,0.6c-0.2,0.1-0.5,0.2-0.7,0.2c-0.3,0-0.5-0.1-0.7-0.2c-0.2-0.1-0.3-0.3-0.3-0.6
			c0-0.5-0.2-0.9-0.5-1.2c-0.3-0.3-0.7-0.4-1.2-0.4H7.1v-2.2h9.4c0.6,0,1.1,0.1,1.6,0.3c0.5,0.2,0.9,0.5,1.2,0.8
			c0.3,0.4,0.6,0.8,0.8,1.2C20.2,15.1,20.3,15.5,20.3,16z"/>
		<path class="st1" d="M7.1,9.9V7.7h13.2v2.2H7.1z"/>
	</g>
</g>
<g>
	<path class="st2" d="M11.6,46.3c0,0.4-0.1,0.7-0.4,0.9c-0.3,0.2-0.6,0.4-0.9,0.4s-0.7-0.1-0.9-0.4S9,46.7,9,46.3
		c0-0.3,0.1-0.6,0.4-0.9C9.7,45.2,10,45,10.3,45s0.7,0.1,0.9,0.4C11.5,45.7,11.6,46,11.6,46.3z M11.6,49.1c0,0.4-0.1,0.7-0.4,0.9
		c-0.3,0.2-0.6,0.4-0.9,0.4S9.7,50.3,9.4,50C9.2,49.8,9,49.5,9,49.1s0.1-0.7,0.4-0.9s0.5-0.4,0.9-0.4c0.4,0,0.7,0.1,0.9,0.4
		S11.6,48.8,11.6,49.1z M14.9,45.6v2.9c0,0.3,0.1,0.5,0.2,0.8s0.2,0.4,0.4,0.5c0.2,0.1,0.3,0.2,0.5,0.3c0.2,0.1,0.4,0.1,0.6,0.1
		c0.5,0,0.9-0.2,1.2-0.5c0.3-0.3,0.4-0.7,0.4-1.2v-1.7h2.2v1.8c0,0.5-0.1,1-0.3,1.4c-0.2,0.4-0.4,0.8-0.8,1.2
		c-0.3,0.3-0.7,0.6-1.2,0.8s-1,0.3-1.5,0.3c-0.5,0-1-0.1-1.5-0.3c-0.5-0.2-0.9-0.4-1.2-0.8S13.2,50.5,13,50c-0.2-0.5-0.3-1-0.3-1.5
		v-5.1h5.4V42h2.2v3.6H14.9z"/>
	<path class="st2" d="M20.3,42c0,0.3-0.1,0.5-0.3,0.6c-0.2,0.1-0.5,0.2-0.7,0.2c-0.3,0-0.5-0.1-0.7-0.2c-0.2-0.1-0.3-0.3-0.4-0.6
		c0-0.4-0.2-0.7-0.5-1s-0.7-0.5-1.1-0.5h-3.9v-2.2h3.9c0.6,0,1.2,0.1,1.6,0.4v-2h2.2v2.7h-1.1c0.4,0.4,0.7,0.8,0.9,1.2
		C20.2,41.1,20.3,41.5,20.3,42z M21.3,38.5c0-0.4,0.1-0.7,0.4-0.9s0.6-0.4,0.9-0.4c0.4,0,0.7,0.1,0.9,0.4s0.4,0.6,0.4,0.9
		c0,0.4-0.1,0.7-0.4,0.9c-0.3,0.3-0.6,0.4-0.9,0.4c-0.3,0-0.6-0.1-0.9-0.3S21.3,38.9,21.3,38.5z M21.3,41.3c0-0.4,0.1-0.7,0.4-0.9
		c0.3-0.2,0.6-0.3,0.9-0.3c0.4,0,0.7,0.1,1,0.4c0.2,0.3,0.4,0.6,0.4,0.9c0,0.4-0.1,0.7-0.4,0.9c-0.3,0.3-0.6,0.4-0.9,0.4
		c-0.3,0-0.6-0.1-0.9-0.3C21.5,42,21.3,41.7,21.3,41.3z"/>
	<path class="st2" d="M18.1,36.7c0-0.4-0.2-0.7-0.5-1s-0.7-0.5-1.1-0.5h-3.9V33h3.9c0.6,0,1.1,0.1,1.6,0.3s0.9,0.5,1.2,0.8
		c0.3,0.3,0.6,0.7,0.8,1.2c0.2,0.4,0.3,0.9,0.3,1.3c0,0.3-0.1,0.5-0.3,0.6c-0.2,0.1-0.5,0.2-0.7,0.2c-0.3,0-0.5-0.1-0.7-0.2
		C18.3,37.1,18.2,36.9,18.1,36.7z M23.9,34.5c0,0.3-0.1,0.6-0.4,0.9c-0.2,0.3-0.6,0.4-0.9,0.4c-0.4,0-0.7-0.1-0.9-0.4
		c-0.2-0.3-0.4-0.6-0.4-0.9c0-0.4,0.1-0.7,0.4-0.9c0.3-0.3,0.6-0.4,0.9-0.4c0.4,0,0.7,0.1,0.9,0.4C23.8,33.9,23.9,34.2,23.9,34.5z"
		/>
	<path class="st2" d="M19.6,29.7c-0.4-0.2-0.8-0.4-1.1-0.5c-0.3-0.1-0.6-0.1-1-0.1c-1.3,0-2.3,0.6-3,1.8l-1.9-1.1
		c0.6-0.9,1.3-1.6,2.1-2.1c0.8-0.5,1.7-0.7,2.6-0.7c0.1,0,0.3,0,0.4,0s0.3,0,0.4,0v-1.2h2.2v1.9c0.1,0,0.2,0.1,0.2,0.1
		c0.1,0,0.2,0.1,0.2,0.1l3.9,2.3l-1.1,1.9L19.6,29.7z"/>
	<path class="st2" d="M20.3,25.8c0,0.3-0.1,0.5-0.3,0.6c-0.2,0.1-0.5,0.2-0.7,0.2c-0.3,0-0.5-0.1-0.7-0.2c-0.2-0.1-0.3-0.3-0.3-0.6
		v-1.7c-0.2,0.1-0.5,0.2-0.8,0.3s-0.6,0.1-0.9,0.1c-0.6,0-1.1-0.1-1.6-0.3s-0.8-0.5-1.2-0.8c-0.3-0.3-0.5-0.7-0.7-1.2
		s-0.2-0.9-0.2-1.4c0-0.6,0.1-1.1,0.4-1.7c0.2-0.5,0.6-1,1.2-1.5l1.5,1.6c-0.6,0.4-0.9,0.9-0.9,1.6c0,0.4,0.1,0.7,0.4,1
		c0.3,0.3,0.7,0.4,1.1,0.4c0.4,0,0.8-0.1,1.2-0.4s0.5-0.7,0.5-1.2V16h2.2V25.8z"/>
	<path class="st2" d="M20.3,16c0,0.3-0.1,0.5-0.3,0.6c-0.2,0.1-0.5,0.2-0.7,0.2c-0.3,0-0.5-0.1-0.7-0.2c-0.2-0.1-0.3-0.3-0.3-0.6
		c0-0.5-0.2-0.9-0.5-1.2c-0.3-0.3-0.7-0.4-1.2-0.4H7.1v-2.2h9.4c0.6,0,1.1,0.1,1.6,0.3c0.5,0.2,0.9,0.5,1.2,0.8
		c0.3,0.4,0.6,0.8,0.8,1.2C20.2,15.1,20.3,15.5,20.3,16z"/>
	<path class="st2" d="M7.1,9.9V7.7h13.2v2.2H7.1z"/>
</g>
</svg>
