<?xml version="1.0" encoding="utf-8"?>
<!-- Generator: Adobe Illustrator 21.1.0, SVG Export Plug-In . SVG Version: 6.00 Build 0)  -->
<svg version="1.1" id="Layer_1" xmlns="http://www.w3.org/2000/svg" xmlns:xlink="http://www.w3.org/1999/xlink" x="0px" y="0px"
	 viewBox="0 0 30 60.2" style="enable-background:new 0 0 30 60.2;" xml:space="preserve">
<style type="text/css">
	.st0{fill:#1C1649;}
	.st1{fill:#46666F;}
	.st2{fill:#FFF200;}
</style>
<rect class="st0" width="30" height="60.2"/>
<g>
	<g>
		<path class="st1" d="M19.9,57H8.7v-8.3h1.9v6h2.5v-5.6H15v5.6h3v-6.2h1.9V57z"/>
		<path class="st1" d="M19.9,39.3v2.1h-4.1c-0.9,0-1.4,0-1.7,0.1c-0.3,0.1-0.5,0.2-0.6,0.4s-0.2,0.5-0.2,0.7c0,0.4,0.1,0.7,0.3,1
			s0.5,0.5,0.8,0.6s1,0.2,1.9,0.2h3.7v2.1h-8.1v-2H13c-0.9-0.7-1.4-1.6-1.4-2.7c0-0.5,0.1-0.9,0.3-1.3c0.2-0.4,0.4-0.7,0.6-0.9
			c0.3-0.2,0.6-0.3,0.9-0.4c0.3-0.1,0.8-0.1,1.4-0.1H19.9z"/>
		<path class="st1" d="M20.4,37.3l0.3-2.4c0.3,0,0.5-0.1,0.6-0.3c0.2-0.2,0.2-0.5,0.2-1c0-0.6-0.1-1-0.3-1.3
			C21.2,32.2,21,32,20.7,32c-0.2-0.1-0.5-0.1-1-0.1h-1.2c0.9,0.6,1.3,1.4,1.3,2.4c0,1.1-0.5,1.9-1.4,2.6c-0.7,0.5-1.6,0.7-2.7,0.7
			c-1.4,0-2.4-0.3-3.1-1c-0.7-0.7-1.1-1.5-1.1-2.4c0-1,0.4-1.8,1.3-2.5h-1.1v-2H19c1,0,1.7,0.1,2.1,0.2c0.5,0.2,0.8,0.4,1.1,0.7
			c0.3,0.3,0.5,0.7,0.6,1.1c0.2,0.5,0.2,1.1,0.2,1.8c0,1.4-0.2,2.3-0.7,2.9s-1.1,0.9-1.8,0.9C20.6,37.3,20.5,37.3,20.4,37.3z
			 M15.7,35.4c0.9,0,1.5-0.2,1.9-0.5s0.6-0.7,0.6-1.2c0-0.5-0.2-1-0.6-1.3c-0.4-0.4-1-0.5-1.8-0.5c-0.8,0-1.5,0.2-1.9,0.5
			s-0.6,0.8-0.6,1.3c0,0.5,0.2,0.9,0.6,1.3C14.3,35.2,14.9,35.4,15.7,35.4z"/>
		<path class="st1" d="M19.9,27.6H8.7v-2.1h11.1V27.6z"/>
		<path class="st1" d="M10.7,23.3h-2v-2.1h2V23.3z M19.9,23.3h-8.1v-2.1h8.1V23.3z"/>
		<path class="st1" d="M17.6,19.7l-0.3-2.1c0.4-0.1,0.7-0.3,0.9-0.6c0.2-0.3,0.3-0.7,0.3-1.2c0-0.6-0.1-1-0.3-1.2
			c-0.1-0.2-0.3-0.3-0.6-0.3c-0.2,0-0.3,0.1-0.4,0.2c-0.1,0.1-0.2,0.3-0.3,0.7c-0.4,1.7-0.7,2.8-1,3.3c-0.4,0.6-1,1-1.8,1
			c-0.7,0-1.3-0.3-1.8-0.8s-0.7-1.4-0.7-2.6c0-1.1,0.2-1.9,0.5-2.5c0.4-0.5,0.9-0.9,1.6-1.1l0.4,2c-0.3,0.1-0.6,0.2-0.7,0.5
			c-0.2,0.2-0.3,0.6-0.3,1c0,0.6,0.1,1,0.2,1.2c0.1,0.2,0.3,0.2,0.4,0.2c0.2,0,0.3-0.1,0.4-0.2c0.1-0.2,0.3-0.9,0.6-2
			c0.3-1.1,0.6-1.9,1-2.4c0.4-0.4,0.9-0.7,1.6-0.7c0.7,0,1.4,0.3,1.9,0.9c0.5,0.6,0.8,1.5,0.8,2.7c0,1.1-0.2,2-0.7,2.6
			C18.9,19.1,18.3,19.5,17.6,19.7z"/>
		<path class="st1" d="M8.7,8.2h4.1c-0.8-0.7-1.2-1.5-1.2-2.5c0-0.5,0.1-0.9,0.3-1.3c0.2-0.4,0.4-0.7,0.7-0.9s0.6-0.3,0.9-0.4
			C13.9,3,14.4,3,15.1,3h4.7v2.1h-4.3c-0.8,0-1.4,0-1.6,0.1s-0.4,0.2-0.5,0.4c-0.1,0.2-0.2,0.5-0.2,0.8c0,0.4,0.1,0.7,0.3,0.9
			c0.2,0.3,0.4,0.5,0.8,0.6c0.3,0.1,0.9,0.2,1.5,0.2h4v2.1H8.7V8.2z"/>
	</g>
	<g>
		<path class="st2" d="M19.6,57.2H8.5v-8.3h1.9v6h2.5v-5.6h1.9v5.6h3v-6.2h1.9V57.2z"/>
		<path class="st2" d="M19.6,39.5v2.1h-4.1c-0.9,0-1.4,0-1.7,0.1c-0.3,0.1-0.5,0.2-0.6,0.4S13,42.6,13,42.9c0,0.4,0.1,0.7,0.3,1
			s0.5,0.5,0.8,0.6s1,0.2,1.9,0.2h3.7v2.1h-8.1v-2h1.2c-0.9-0.7-1.4-1.6-1.4-2.7c0-0.5,0.1-0.9,0.3-1.3c0.2-0.4,0.4-0.7,0.6-0.9
			c0.3-0.2,0.6-0.3,0.9-0.4c0.3-0.1,0.8-0.1,1.4-0.1H19.6z"/>
		<path class="st2" d="M20.1,37.5l0.3-2.4c0.3,0,0.5-0.1,0.6-0.3c0.2-0.2,0.2-0.5,0.2-1c0-0.6-0.1-1-0.3-1.3
			c-0.1-0.2-0.3-0.3-0.5-0.4c-0.2-0.1-0.5-0.1-1-0.1h-1.2c0.9,0.6,1.3,1.4,1.3,2.4c0,1.1-0.5,1.9-1.4,2.6c-0.7,0.5-1.6,0.7-2.7,0.7
			c-1.4,0-2.4-0.3-3.1-1c-0.7-0.7-1.1-1.5-1.1-2.4c0-1,0.4-1.8,1.3-2.5h-1.1v-2h7.2c1,0,1.7,0.1,2.1,0.2c0.5,0.2,0.8,0.4,1.1,0.7
			c0.3,0.3,0.5,0.7,0.6,1.1c0.2,0.5,0.2,1.1,0.2,1.8c0,1.4-0.2,2.3-0.7,2.9s-1.1,0.9-1.8,0.9C20.3,37.5,20.2,37.5,20.1,37.5z
			 M15.4,35.6c0.9,0,1.5-0.2,1.9-0.5s0.6-0.7,0.6-1.2c0-0.5-0.2-1-0.6-1.3c-0.4-0.4-1-0.5-1.8-0.5c-0.8,0-1.5,0.2-1.9,0.5
			S13,33.3,13,33.8c0,0.5,0.2,0.9,0.6,1.3C14,35.4,14.6,35.6,15.4,35.6z"/>
		<path class="st2" d="M19.6,27.8H8.5v-2.1h11.1V27.8z"/>
		<path class="st2" d="M10.5,23.5h-2v-2.1h2V23.5z M19.6,23.5h-8.1v-2.1h8.1V23.5z"/>
		<path class="st2" d="M17.3,19.9L17,17.7c0.4-0.1,0.7-0.3,0.9-0.6c0.2-0.3,0.3-0.7,0.3-1.2c0-0.6-0.1-1-0.3-1.2
			c-0.1-0.2-0.3-0.3-0.6-0.3c-0.2,0-0.3,0.1-0.4,0.2c-0.1,0.1-0.2,0.3-0.3,0.7c-0.4,1.7-0.7,2.8-1,3.3c-0.4,0.6-1,1-1.8,1
			c-0.7,0-1.3-0.3-1.8-0.8s-0.7-1.4-0.7-2.6c0-1.1,0.2-1.9,0.5-2.5c0.4-0.5,0.9-0.9,1.6-1.1l0.4,2c-0.3,0.1-0.6,0.2-0.7,0.5
			c-0.2,0.2-0.3,0.6-0.3,1c0,0.6,0.1,1,0.2,1.2c0.1,0.2,0.3,0.2,0.4,0.2c0.2,0,0.3-0.1,0.4-0.2c0.1-0.2,0.3-0.9,0.6-2
			c0.3-1.1,0.6-1.9,1-2.4c0.4-0.4,0.9-0.7,1.6-0.7c0.7,0,1.4,0.3,1.9,0.9c0.5,0.6,0.8,1.5,0.8,2.7c0,1.1-0.2,2-0.7,2.6
			C18.7,19.3,18.1,19.7,17.3,19.9z"/>
		<path class="st2" d="M8.5,8.3h4.1c-0.8-0.7-1.2-1.5-1.2-2.5c0-0.5,0.1-0.9,0.3-1.3c0.2-0.4,0.4-0.7,0.7-0.9s0.6-0.3,0.9-0.4
			c0.3-0.1,0.9-0.1,1.6-0.1h4.7v2.1h-4.3c-0.8,0-1.4,0-1.6,0.1s-0.4,0.2-0.5,0.4C13.1,6,13,6.3,13,6.6c0,0.4,0.1,0.7,0.3,0.9
			C13.4,7.8,13.7,8,14,8.2c0.3,0.1,0.9,0.2,1.5,0.2h4v2.1H8.5V8.3z"/>
	</g>
</g>
</svg>
